Coordinates
version=1
nRows=14
nColumns=36
inDegrees=yes

Units are S.I. units (second, meters, Newtons, ...)
If the header above contains a line with 'inDegrees', this indicates whether rotational values are in degrees (yes) or radians (no).

endheader
time	pelvis_tilt	pelvis_list	pelvis_rotation	pelvis_tx	pelvis_ty	pelvis_tz	hip_flexion_r	hip_adduction_r	hip_rotation_r	knee_angle_r	knee_angle_r_beta	ankle_angle_r	subtalar_angle_r	mtp_angle_r	hip_flexion_l	hip_adduction_l	hip_rotation_l	knee_angle_l	knee_angle_l_beta	ankle_angle_l	subtalar_angle_l	mtp_angle_l	lumbar_extension	lumbar_bending	lumbar_rotation	arm_flex_r	arm_add_r	arm_rot_r	elbow_flex_r	pro_sup_r	arm_flex_l	arm_add_l	arm_rot_l	elbow_flex_l	pro_sup_l
     10.59000000	    -30.03111186	     -0.43756722	     -0.36847003	     -0.40214396	      0.59329902	     -0.70874408	    106.56627540	    -15.44867134	      4.87288857	     94.29404039	      1.64574147	     24.53806900	     -0.37605730	     -7.49999987	    106.71811132	    -14.43063785	      3.26083351	     94.64862225	      1.65193009	     23.96770856	     -2.52010290	     -7.49999987	    -24.56132184	      1.23562244	      1.74810806	     52.52397212	    -24.29883554	      7.60948903	    108.17914376	     96.25937628	     42.98263254	    -21.69347797	      5.84488793	    112.92749512	    100.34975471
     10.60000000	    -29.36967115	     -0.50480280	     -0.42642068	     -0.40570573	      0.58926510	     -0.70901375	    106.68123527	    -15.38503600	      5.02505212	     94.80154496	      1.65459910	     24.44085833	     -0.39599074	     -7.49999987	    106.93930890	    -14.46005807	      3.46440594	     95.26851140	      1.66274920	     23.89532984	     -2.56024946	     -7.49999987	    -24.66931671	      1.36603935	      1.72889676	     52.35569802	    -24.31187710	      7.69555273	    108.11949115	     96.24774784	     42.99269040	    -21.77730904	      6.00686577	    112.83555145	    100.31741681
     10.61000000	    -28.49369447	     -0.71395257	     -0.50533755	     -0.40915278	      0.58561664	     -0.70944355	    106.52738073	    -15.43690673	      4.90928013	     95.31804488	      1.66361372	     24.10515882	     -0.30428672	     -7.49999987	    107.01985904	    -14.53573581	      3.79962510	     95.93600948	      1.67439924	     23.63169248	     -2.54055127	     -7.49999987	    -24.95563426	      1.62291759	      1.84524450	     52.26889168	    -24.48009305	      7.81329176	    107.92050250	     96.18555542	     43.18785422	    -21.93000248	      6.65380443	    112.51788466	    100.15945551
     10.62000000	    -27.70395258	     -0.84260216	     -0.45373820	     -0.41257283	      0.58191993	     -0.71017337	    106.51312115	    -15.61110419	      4.96241057	     95.86571088	      1.67317229	     23.92332959	     -0.19000362	     -7.49999987	    107.11439901	    -14.42616050	      4.02723583	     96.53624126	      1.68487526	     23.42934260	     -2.60160435	     -7.49999987	    -25.08362495	      1.83643974	      1.87421198	     51.96478254	    -24.68285673	      7.77212961	    107.94435962	     96.09968040	     43.33078766	    -21.85846774	      7.10352050	    112.23678230	     99.90161801
     10.63000000	    -26.97562298	     -0.86863787	     -0.45237880	     -0.41604062	      0.57834634	     -0.71059401	    106.56195754	    -15.63065625	      5.14990372	     96.35609801	      1.68173116	     23.84858674	     -0.19677181	     -7.49999987	    107.18835403	    -14.36207643	      4.19677126	     97.07956837	      1.69435810	     23.36148493	     -2.64664804	     -7.49999987	    -25.11456790	      1.93099573	      1.78890498	     51.62726930	    -24.67460454	      7.82300162	    107.92454577	     96.08755514	     43.21204738	    -21.87477355	      7.22297249	    112.17457681	     99.86583598
     10.64000000	    -26.06186181	     -0.85111528	     -0.46614863	     -0.41944301	      0.57525638	     -0.71086589	    106.42990242	    -15.64970977	      5.31381124	     96.87134602	      1.69072394	     23.66465563	     -0.14340035	     -7.49999987	    107.03467404	    -14.39099491	      4.26106319	     97.60309783	      1.70349542	     23.19666926	     -2.67801477	     -7.49999987	    -25.31671975	      1.95388950	      1.71029145	     51.32772584	    -24.68722233	      7.84464053	    107.84843838	     96.05442962	     43.19835861	    -21.99677916	      7.51177639	    112.00314269	     99.78657556
     10.65000000	    -24.95187171	     -0.74465483	     -0.53492143	     -0.42291937	      0.57269918	     -0.71103726	    106.08091540	    -15.52517114	      5.63701079	     97.30025389	      1.69820979	     23.36235051	     -0.05352750	     -7.49999987	    106.60542483	    -14.48221857	      4.26549618	     98.08541087	      1.71191337	     22.95407771	     -2.73738358	     -7.49999987	    -25.72734942	      1.80646545	      1.67266526	     51.05099033	    -24.69515717	      7.84408740	    107.72601075	     95.98467338	     43.41355215	    -22.17365397	      8.06603768	    111.75584328	     99.62593885
     10.66000000	    -23.91759608	     -0.70574755	     -0.60603573	     -0.42633595	      0.57005948	     -0.71118559	    105.76237466	    -15.39193145	      5.86240783	     97.71000143	      1.70536124	     23.12743689	     -0.04979904	     -7.49999987	    106.27321366	    -14.55389446	      4.34661235	     98.56692375	      1.72031735	     22.74729566	     -2.80651804	     -7.49999987	    -25.97100330	      1.71912171	      1.67502089	     50.62425983	    -24.64087892	      7.73806443	    107.68205745	     95.91811322	     43.50077843	    -22.23929390	      8.51232181	    111.56494052	     99.46248672
     10.67000000	    -22.90893616	     -0.70946484	     -0.51296731	     -0.42968874	      0.56736248	     -0.71166800	    105.47334430	    -15.48726260	      6.06191775	     98.15892090	      1.71319636	     22.95522568	     -0.08544027	     -7.49999987	    105.95284569	    -14.40161840	      4.45682946	     99.00861717	      1.72802636	     22.50041293	     -2.80863795	     -7.49999987	    -26.12733023	      1.75354665	      1.58016498	     50.11322061	    -24.49971650	      7.54657223	    107.70101083	     95.86230993	     43.53932217	    -22.23034987	      8.89114484	    111.39085151	     99.32452486
     10.68000000	    -21.88510036	     -0.68555488	     -0.26892501	     -0.43297512	      0.56460942	     -0.71258274	    105.22214002	    -15.79097109	      6.33052051	     98.66428105	      1.72201656	     22.82623743	     -0.08138805	     -7.49999987	    105.59769923	    -14.06404055	      4.48072871	     99.44278485	      1.73560401	     22.27954782	     -2.80153307	     -7.49999987	    -26.21525934	      1.84711823	      1.31335972	     49.58063878	    -24.40268771	      7.43329588	    107.73440536	     95.82058353	     43.48737786	    -22.20024857	      9.22383558	    111.24281686	     99.22343317
     10.69000000	    -20.74957105	     -0.60516304	     -0.06909542	     -0.43625845	      0.56207322	     -0.71343723	    104.85734962	    -16.00998953	      6.68733855	     99.16066164	      1.73068003	     22.66985609	      0.01286898	     -7.49999987	    105.11343002	    -13.80844122	      4.41287202	     99.88754710	      1.74336658	     22.07095803	     -2.84275205	     -7.49999987	    -26.37286735	      1.86301073	      1.05815548	     49.05289537	    -24.35837264	      7.42028776	    107.72149168	     95.77493645	     43.38637983	    -22.18018823	      9.56878999	    111.09032323	     99.10812607
     10.70000000	    -19.47600696	     -0.49676393	     -0.07880065	     -0.43963274	      0.55981190	     -0.71372123	    104.31937702	    -15.95254954	      7.01506399	     99.59639231	      1.73828497	     22.48918403	      0.19672125	     -7.49999987	    104.48261940	    -13.81961576	      4.37738726	    100.34317785	      1.75131884	     21.86006717	     -2.96480173	     -7.49999987	    -26.61999926	      1.71488021	      0.99210050	     48.53237301	    -24.34668206	      7.46695819	    107.65477961	     95.70415188	     43.30881020	    -22.16488478	      9.99354613	    110.90797604	     98.91493691
     10.71000000	    -18.23712549	     -0.51158969	     -0.15218484	     -0.44309859	      0.55732648	     -0.71381461	    103.76666130	    -15.80433773	      7.18651848	    100.03029893	      1.74585807	     22.33970708	      0.27025668	     -7.49999987	    103.97291308	    -13.85294639	      4.55360704	    100.84133719	      1.76001336	     21.67716740	     -3.07308812	     -7.49999987	    -26.75217013	      1.62784576	      1.04932353	     47.95060588	    -24.36804747	      7.47938758	    107.58721472	     95.62837579	     43.18898971	    -22.09534760	     10.40295601	    110.74344992	     98.72079991
     10.72000000	    -16.93144006	     -0.51490823	     -0.11569154	     -0.44668413	      0.55473276	     -0.71421060	    103.19356988	    -15.78949587	      7.41938084	    100.49330993	      1.75393913	     22.16895942	      0.28625672	     -7.49999987	    103.39329049	    -13.68965394	      4.74089643	    101.32950468	      1.76853349	     21.53125594	     -3.20283415	     -7.49999987	    -26.90613923	      1.60827540	      1.00084469	     47.44291562	    -24.35180132	      7.56404035	    107.52042671	     95.55616231	     43.06264106	    -22.06338863	     10.77339202	    110.58622073	     98.53488057
